<svg width="64" height="44" viewBox="0 0 64 44" fill="none" xmlns="http://www.w3.org/2000/svg">
<path d="M56.1616 23.9655C55.9865 24.5758 55.872 25.2039 55.8199 25.8396C56.1438 32.5357 52.2235 36.1722 47.419 39.2654C43.3355 41.8944 38.8145 42.4946 34.2091 42.7643C26.7665 43.2002 19.3215 43.5915 11.8765 43.9821C7.01273 44.2373 2.51443 41.7833 1.2793 35.3651C0.936531 33.584 0.69796 31.7703 0.220199 30.0309C-0.0418027 29.0448 -0.0704752 28.0051 0.136731 27.0044C0.343938 26.0036 0.780601 25.0728 1.40789 24.2947C3.08872 21.951 5.02255 19.825 7.1697 17.9604C12.0107 13.9053 16.5563 9.3501 22.2739 6.62463C31.3558 2.29542 40.578 -1.40857 50.8455 0.527028C56.0161 1.50176 60.665 3.54195 62.8745 9.03988C63.6862 11.2837 64.0657 13.6779 63.9907 16.0806C63.8596 18.3158 63.4428 20.5217 62.7519 22.6375C61.9024 25.7226 60.065 26.3994 57.5628 24.7575C57.1957 24.5167 56.8005 24.3244 56.1616 23.9655ZM53.0287 2.99237C50.3107 2.69445 47.5987 2.2745 44.8736 2.12414C39.2837 1.81572 34.1032 3.67847 28.8547 5.47343C19.859 8.54996 12.8856 14.7694 6.14846 21.3595C4.51515 22.9665 3.29199 24.9876 2.59339 27.2337C1.61306 30.6126 2.3249 34.0968 3.69302 37.3421C4.70153 39.7344 6.38356 41.3614 8.86758 41.6774C10.6895 41.8508 12.5198 41.9011 14.3477 41.828C19.4979 41.7823 24.6662 41.9556 29.7928 41.5496C35.1889 41.1222 40.7879 41.3682 45.6957 38.2124C50.0205 35.4316 54.0954 32.5716 53.8065 26.1214C53.5973 21.4524 54.8403 20.819 58.7822 23.1504C59.7772 23.7389 60.4152 23.619 60.6444 22.4884C61.258 19.4627 61.8643 16.4279 62.2676 13.3662C62.3278 12.3428 62.0796 11.3256 61.5591 10.4623C59.5554 6.96525 57.1573 3.91279 53.0287 2.99237Z" fill="black"/>
<path d="M49.1555 21.6663C51.1071 21.8106 51.3926 23.0978 51.1864 24.9278C50.6781 29.4393 48.4314 32.1325 44.4535 32.8057C43.4748 33.0116 42.4594 32.8574 41.5742 32.3684C40.689 31.8793 39.9867 31.0847 39.5829 30.1151C38.6689 28.1315 39.0427 26.2523 40.6781 24.6098C43.5329 21.7425 46.075 20.851 49.1555 21.6663ZM48.5222 26.5637C49.0437 24.5838 48.1192 23.4408 46.26 24.0079C44.969 24.3683 43.76 25.0029 42.7058 25.8732C42.3862 26.2115 42.1497 26.6281 42.0171 27.0863C41.8845 27.5445 41.8598 28.0303 41.9453 28.501C42.1895 28.9282 42.5223 29.2906 42.9181 29.5605C43.314 29.8305 43.7626 30.0009 44.2298 30.0588C46.4266 30.2015 47.9307 28.809 48.5222 26.5637Z" fill="black"/>
<path d="M23.4738 38.5013C20.3725 37.6525 19.7934 35.8969 21.6709 33.3337C24.3852 29.6283 30.6306 27.8087 34.0578 29.7247C35.6423 30.6106 37.25 33.3682 36.7908 35.1034C36.5973 35.5722 36.3064 35.9883 35.9401 36.3207C35.5738 36.653 35.1414 36.8929 34.6755 37.0224C31.3105 37.7238 27.8966 38.1634 24.4962 38.6652C24.1494 38.6676 23.8045 38.6123 23.4738 38.5013ZM24.0242 36.8938C24.5475 36.8433 25.3081 36.8048 26.0585 36.6907C28.139 36.3744 30.2346 36.1212 32.2846 35.649C33.2264 35.3111 34.1277 34.8569 34.9699 34.2957C34.2459 33.2745 33.7086 31.8563 32.7451 31.3441C31.616 30.8717 30.3627 30.8587 29.2251 31.3074C27.094 32.0986 25.0623 33.1651 23.1758 34.483C22.0625 35.2877 22.5094 36.48 24.0242 36.8938Z" fill="black"/>
<path d="M11.5298 26.1168C10.7081 25.2084 9.59626 24.4397 9.13464 23.3577C8.4931 21.854 9.46858 20.5333 10.6338 19.7756C11.955 18.8765 13.4016 18.205 14.92 17.786C16.4426 17.4101 18.189 19.008 18.6385 20.8977C19.0522 22.6369 18.6569 23.9795 16.9534 24.8831C15.3205 25.9121 13.4159 26.3453 11.5298 26.1168Z" fill="black"/>
<path d="M12.7423 35.0811C12.3398 35.8601 11.8949 36.6136 11.41 37.3377C10.9699 38.0127 10.3283 38.5101 9.58923 38.7494C8.85012 38.9886 8.05667 38.9559 7.33727 38.6563C5.61102 38.0308 5.16303 36.5103 5.07805 34.8092C4.98639 32.9746 6.83389 30.0104 8.45271 29.2792C10.8102 28.2142 12.6515 29.3719 12.8049 32.067C12.8617 33.0646 12.7677 34.0719 12.7423 35.0811Z" fill="black"/>
<path d="M50.5778 13.9085C47.8659 13.131 46.3986 11.211 46.9647 9.18058C47.5305 7.15148 50.389 5.60104 52.4291 6.2168C54.5071 6.84398 56.3528 9.79609 55.8312 11.6587C55.1516 14.0858 53.5656 14.7651 50.5778 13.9085Z" fill="black"/>
<path d="M40.0102 5.65293C42.5364 6.3444 43.4811 7.61062 43.0191 9.68564C42.5049 11.9947 39.1055 13.5496 36.3106 12.754C34.8904 12.3497 33.5129 10.3616 33.8076 9.14155C34.4228 6.59541 37.379 4.93268 40.0102 5.65293Z" fill="black"/>
<path d="M21.4732 13.4372C22.0236 11.2997 25.4207 9.22745 27.4646 9.78246C27.8375 9.86643 28.1909 10.0284 28.5043 10.259C28.8177 10.4895 29.0848 10.7841 29.29 11.1254C29.4953 11.4668 29.6346 11.8481 29.6998 12.2473C29.765 12.6464 29.7549 13.0554 29.67 13.4503C28.9775 15.9203 25.948 18.2803 24.1069 17.784C21.974 17.2091 20.941 15.5041 21.4732 13.4372Z" fill="black"/>
</svg>
